<svg width="16" height="12" viewBox="0 0 16 12" fill="none" xmlns="http://www.w3.org/2000/svg">
<path d="M12.1667 10.6667H4.16672C3.63629 10.6667 3.12758 10.456 2.75251 10.0809C2.37744 9.70581 2.16672 9.1971 2.16672 8.66667V3.33333C2.16672 3.15652 2.09648 2.98695 1.97146 2.86193C1.84644 2.7369 1.67687 2.66667 1.50006 2.66667C1.32324 2.66667 1.15368 2.7369 1.02865 2.86193C0.903627 2.98695 0.833389 3.15652 0.833389 3.33333V8.66667C0.833389 9.55072 1.18458 10.3986 1.8097 11.0237C2.11923 11.3332 2.48669 11.5788 2.89111 11.7463C3.29553 11.9138 3.72898 12 4.16672 12H12.1667C12.3435 12 12.5131 11.9298 12.6381 11.8047C12.7632 11.6797 12.8334 11.5101 12.8334 11.3333C12.8334 11.1565 12.7632 10.987 12.6381 10.8619C12.5131 10.7369 12.3435 10.6667 12.1667 10.6667ZM9.50006 5.33333H6.83339C6.65658 5.33333 6.48701 5.40357 6.36198 5.5286C6.23696 5.65362 6.16672 5.82319 6.16672 6C6.16672 6.17681 6.23696 6.34638 6.36198 6.4714C6.48701 6.59643 6.65658 6.66667 6.83339 6.66667H9.50006C9.67687 6.66667 9.84644 6.59643 9.97146 6.4714C10.0965 6.34638 10.1667 6.17681 10.1667 6C10.1667 5.82319 10.0965 5.65362 9.97146 5.5286C9.84644 5.40357 9.67687 5.33333 9.50006 5.33333ZM15.5001 4.62667C15.4931 4.56542 15.4797 4.50509 15.4601 4.44667V4.38667C15.428 4.31812 15.3852 4.25511 15.3334 4.2V4.2L11.3334 0.2C11.2783 0.148144 11.2153 0.105387 11.1467 0.0733333H11.0867C11.019 0.0344942 10.9442 0.0095628 10.8667 0H5.50006C4.96962 0 4.46091 0.210714 4.08584 0.585787C3.71077 0.960859 3.50006 1.46957 3.50006 2V7.33333C3.50006 7.86377 3.71077 8.37247 4.08584 8.74755C4.46091 9.12262 4.96962 9.33333 5.50006 9.33333H13.5001C14.0305 9.33333 14.5392 9.12262 14.9143 8.74755C15.2893 8.37247 15.5001 7.86377 15.5001 7.33333V4.66667C15.5001 4.66667 15.5001 4.66667 15.5001 4.62667ZM11.5001 2.27333L13.2267 4H12.1667C11.9899 4 11.8203 3.92976 11.6953 3.80474C11.5703 3.67971 11.5001 3.51014 11.5001 3.33333V2.27333ZM14.1667 7.33333C14.1667 7.51014 14.0965 7.67971 13.9715 7.80474C13.8464 7.92976 13.6769 8 13.5001 8H5.50006C5.32324 8 5.15368 7.92976 5.02865 7.80474C4.90363 7.67971 4.83339 7.51014 4.83339 7.33333V2C4.83339 1.82319 4.90363 1.65362 5.02865 1.5286C5.15368 1.40357 5.32324 1.33333 5.50006 1.33333H10.1667V3.33333C10.1667 3.86377 10.3774 4.37247 10.7525 4.74755C11.1276 5.12262 11.6363 5.33333 12.1667 5.33333H14.1667V7.33333ZM6.83339 4H8.16672C8.34353 4 8.5131 3.92976 8.63813 3.80474C8.76315 3.67971 8.83339 3.51014 8.83339 3.33333C8.83339 3.15652 8.76315 2.98695 8.63813 2.86193C8.5131 2.7369 8.34353 2.66667 8.16672 2.66667H6.83339C6.65658 2.66667 6.48701 2.7369 6.36198 2.86193C6.23696 2.98695 6.16672 3.15652 6.16672 3.33333C6.16672 3.51014 6.23696 3.67971 6.36198 3.80474C6.48701 3.92976 6.65658 4 6.83339 4V4Z" fill="#0129E3"/>
</svg>
