<svg width="15" height="14" viewBox="0 0 15 14" fill="none" xmlns="http://www.w3.org/2000/svg">
<path d="M9.56501 6.58581L6.26334 3.28998C6.20911 3.23531 6.1446 3.19191 6.07351 3.16229C6.00243 3.13268 5.92618 3.11743 5.84918 3.11743C5.77217 3.11743 5.69592 3.13268 5.62484 3.16229C5.55376 3.19191 5.48924 3.23531 5.43501 3.28998C5.32636 3.39928 5.26538 3.54712 5.26538 3.70123C5.26538 3.85534 5.32636 4.00319 5.43501 4.11248L8.32251 7.02915L5.43501 9.91665C5.32636 10.0259 5.26538 10.1738 5.26538 10.3279C5.26538 10.482 5.32636 10.6299 5.43501 10.7391C5.48904 10.7943 5.55346 10.8381 5.62456 10.8682C5.69565 10.8982 5.772 10.9138 5.84918 10.9141C5.92636 10.9138 6.0027 10.8982 6.0738 10.8682C6.14489 10.8381 6.20932 10.7943 6.26334 10.7391L9.56501 7.44331C9.62422 7.38869 9.67148 7.32239 9.7038 7.2486C9.73612 7.17481 9.7528 7.09512 9.7528 7.01456C9.7528 6.934 9.73612 6.85432 9.7038 6.78053C9.67148 6.70674 9.62422 6.64044 9.56501 6.58581Z" fill="white"/>
</svg>
