<svg width="12" height="14" viewBox="0 0 12 14" fill="none" xmlns="http://www.w3.org/2000/svg">
<path d="M6.00002 0.333252C4.58553 0.333252 3.22898 0.895155 2.22878 1.89535C1.22859 2.89554 0.666687 4.2521 0.666687 5.66659C0.666687 9.26659 5.36669 13.3333 5.56669 13.5066C5.68744 13.6099 5.84112 13.6666 6.00002 13.6666C6.15892 13.6666 6.3126 13.6099 6.43335 13.5066C6.66669 13.3333 11.3334 9.26659 11.3334 5.66659C11.3334 4.2521 10.7715 2.89554 9.77126 1.89535C8.77106 0.895155 7.41451 0.333252 6.00002 0.333252ZM6.00002 12.0999C4.58002 10.7666 2.00002 7.89325 2.00002 5.66659C2.00002 4.60572 2.42145 3.5883 3.17159 2.83816C3.92174 2.08801 4.93915 1.66659 6.00002 1.66659C7.06089 1.66659 8.0783 2.08801 8.82845 2.83816C9.57859 3.5883 10 4.60572 10 5.66659C10 7.89325 7.42002 10.7733 6.00002 12.0999ZM6.00002 2.99992C5.4726 2.99992 4.95703 3.15632 4.5185 3.44933C4.07997 3.74235 3.73817 4.15883 3.53634 4.6461C3.33451 5.13337 3.2817 5.66954 3.38459 6.18683C3.48749 6.70411 3.74146 7.17926 4.1144 7.5522C4.48734 7.92514 4.9625 8.17912 5.47978 8.28201C5.99706 8.38491 6.53324 8.3321 7.02051 8.13026C7.50778 7.92843 7.92425 7.58664 8.21727 7.14811C8.51029 6.70957 8.66669 6.194 8.66669 5.66659C8.66669 4.95934 8.38574 4.28106 7.88564 3.78097C7.38554 3.28087 6.70726 2.99992 6.00002 2.99992ZM6.00002 6.99992C5.73631 6.99992 5.47853 6.92172 5.25926 6.77521C5.03999 6.6287 4.8691 6.42046 4.76818 6.17683C4.66726 5.9332 4.64086 5.66511 4.69231 5.40647C4.74375 5.14782 4.87074 4.91025 5.05721 4.72378C5.24368 4.53731 5.48126 4.41032 5.7399 4.35887C5.99854 4.30742 6.26663 4.33383 6.51026 4.43475C6.7539 4.53566 6.96214 4.70656 7.10865 4.92583C7.25515 5.14509 7.33335 5.40288 7.33335 5.66659C7.33335 6.02021 7.19288 6.35935 6.94283 6.60939C6.69278 6.85944 6.35364 6.99992 6.00002 6.99992Z" fill="#0129E3"/>
</svg>
