<svg width="14" height="14" viewBox="0 0 14 14" fill="none" xmlns="http://www.w3.org/2000/svg">
<path d="M6.52666 9.19337C6.49799 9.22505 6.47128 9.25845 6.44666 9.29337C6.42143 9.33054 6.40126 9.37089 6.38666 9.41337C6.36744 9.45116 6.35396 9.49161 6.34667 9.53337C6.34339 9.57776 6.34339 9.62232 6.34667 9.66671C6.34441 9.75416 6.36268 9.84092 6.4 9.92004C6.42994 10.0028 6.47771 10.0779 6.53992 10.1401C6.60213 10.2023 6.67727 10.2501 6.76 10.28C6.8398 10.3153 6.92608 10.3335 7.01333 10.3335C7.10058 10.3335 7.18686 10.3153 7.26666 10.28C7.3494 10.2501 7.42453 10.2023 7.48674 10.1401C7.54895 10.0779 7.59672 10.0028 7.62666 9.92004C7.65627 9.83898 7.66985 9.75295 7.66666 9.66671C7.66717 9.57897 7.65036 9.492 7.61718 9.41077C7.584 9.32955 7.53512 9.25567 7.47333 9.19337C7.41136 9.13089 7.33762 9.08129 7.25638 9.04745C7.17514 9.0136 7.08801 8.99618 7 8.99618C6.91199 8.99618 6.82485 9.0136 6.74361 9.04745C6.66237 9.08129 6.58864 9.13089 6.52666 9.19337ZM7 0.333374C5.68146 0.333374 4.39252 0.724367 3.2962 1.45691C2.19987 2.18945 1.34539 3.23064 0.840801 4.44882C0.336217 5.66699 0.204195 7.00744 0.461429 8.30064C0.718664 9.59385 1.3536 10.7817 2.28595 11.7141C3.2183 12.6464 4.40619 13.2814 5.6994 13.5386C6.9926 13.7958 8.33305 13.6638 9.55122 13.1592C10.7694 12.6547 11.8106 11.8002 12.5431 10.7038C13.2757 9.60751 13.6667 8.31858 13.6667 7.00004C13.6667 6.12456 13.4942 5.25765 13.1592 4.44882C12.8242 3.63998 12.3331 2.90505 11.714 2.286C11.095 1.66694 10.3601 1.17588 9.55122 0.840844C8.74238 0.505812 7.87548 0.333374 7 0.333374V0.333374ZM7 12.3334C5.94516 12.3334 4.91402 12.0206 4.03696 11.4345C3.15989 10.8485 2.47631 10.0156 2.07264 9.04102C1.66897 8.06648 1.56336 6.99412 1.76914 5.95956C1.97493 4.92499 2.48288 3.97468 3.22876 3.2288C3.97464 2.48292 4.92495 1.97497 5.95952 1.76919C6.99408 1.5634 8.06644 1.66902 9.04098 2.07268C10.0155 2.47635 10.8485 3.15994 11.4345 4.037C12.0205 4.91406 12.3333 5.94521 12.3333 7.00004C12.3333 8.41453 11.7714 9.77108 10.7712 10.7713C9.77104 11.7715 8.41449 12.3334 7 12.3334V12.3334ZM7 3.66671C6.64871 3.66648 6.30355 3.75879 5.99927 3.93434C5.69499 4.10988 5.44231 4.36248 5.26666 4.66671C5.21843 4.74259 5.18604 4.82744 5.17145 4.91616C5.15685 5.00488 5.16036 5.09563 5.18175 5.18297C5.20314 5.2703 5.24198 5.3524 5.29592 5.42433C5.34986 5.49626 5.4178 5.55654 5.49565 5.60154C5.57349 5.64653 5.65963 5.67532 5.74889 5.68616C5.83814 5.697 5.92867 5.68968 6.01502 5.66463C6.10138 5.63957 6.18177 5.59731 6.25136 5.54039C6.32096 5.48346 6.37832 5.41304 6.42 5.33337C6.47873 5.23164 6.56331 5.14723 6.66516 5.08869C6.76701 5.03016 6.88252 4.99957 7 5.00004C7.17681 5.00004 7.34638 5.07028 7.4714 5.1953C7.59643 5.32033 7.66666 5.4899 7.66666 5.66671C7.66666 5.84352 7.59643 6.01309 7.4714 6.13811C7.34638 6.26314 7.17681 6.33337 7 6.33337C6.82319 6.33337 6.65362 6.40361 6.52859 6.52864C6.40357 6.65366 6.33333 6.82323 6.33333 7.00004V7.66671C6.33333 7.84352 6.40357 8.01309 6.52859 8.13811C6.65362 8.26314 6.82319 8.33337 7 8.33337C7.17681 8.33337 7.34638 8.26314 7.4714 8.13811C7.59643 8.01309 7.66666 7.84352 7.66666 7.66671V7.54671C8.10758 7.38672 8.47824 7.07686 8.71385 6.67129C8.94945 6.26571 9.03502 5.79024 8.9556 5.32797C8.87617 4.8657 8.6368 4.44605 8.27933 4.14238C7.92186 3.83872 7.46903 3.67035 7 3.66671V3.66671Z" fill="#0129E3"/>
</svg>
