<svg width="14" height="14" viewBox="0 0 14 14" fill="none" xmlns="http://www.w3.org/2000/svg">
<path d="M13.4733 12.5267L11 10.0734C11.9601 8.87633 12.425 7.35692 12.2992 5.82759C12.1734 4.29826 11.4664 2.87525 10.3237 1.85115C9.18091 0.827062 7.6892 0.279732 6.15528 0.321705C4.62136 0.363679 3.16181 0.991766 2.07676 2.07682C0.991705 3.16187 0.363618 4.62142 0.321644 6.15534C0.279671 7.68926 0.827001 9.18097 1.85109 10.3237C2.87519 11.4665 4.2982 12.1735 5.82753 12.2993C7.35686 12.4251 8.87627 11.9601 10.0733 11.0001L12.5267 13.4534C12.5886 13.5159 12.6624 13.5655 12.7436 13.5993C12.8249 13.6332 12.912 13.6506 13 13.6506C13.088 13.6506 13.1751 13.6332 13.2564 13.5993C13.3376 13.5655 13.4114 13.5159 13.4733 13.4534C13.5935 13.3291 13.6607 13.163 13.6607 12.9901C13.6607 12.8172 13.5935 12.651 13.4733 12.5267V12.5267ZM6.33333 11.0001C5.41035 11.0001 4.5081 10.7264 3.74067 10.2136C2.97324 9.7008 2.3751 8.97197 2.02189 8.11925C1.66868 7.26653 1.57627 6.32821 1.75633 5.42297C1.9364 4.51773 2.38085 3.6862 3.0335 3.03356C3.68614 2.38091 4.51766 1.93646 5.42291 1.75639C6.32815 1.57633 7.26646 1.66874 8.11919 2.02195C8.97191 2.37516 9.70074 2.9733 10.2135 3.74073C10.7263 4.50816 11 5.41041 11 6.33339C11 7.57107 10.5083 8.75805 9.63316 9.63322C8.75799 10.5084 7.57101 11.0001 6.33333 11.0001V11.0001Z" fill="white"/>
</svg>
